<svg width="35" height="22" viewBox="0 0 35 22" fill="none" xmlns="http://www.w3.org/2000/svg">
<path d="M3.18182 5.72205e-06C2.30682 5.72205e-06 1.55803 0.307482 0.935454 0.922434C0.312879 1.53739 0.00106061 2.27753 0 3.14286V18.8571C0 19.7214 0.311818 20.461 0.935454 21.076C1.55909 21.691 2.30788 21.999 3.18182 22H19.0909C19.9659 22 20.7152 21.692 21.3389 21.076C21.9625 20.46 22.2738 19.7204 22.2727 18.8571V3.14286C22.2727 2.27858 21.9614 1.53843 21.3389 0.922434C20.7163 0.306435 19.967 -0.00104141 19.0909 5.72205e-06H3.18182ZM27.0454 12.5714C26.5947 12.5714 26.2171 12.7223 25.9127 13.024C25.6083 13.3257 25.4556 13.6987 25.4545 14.1429V20.4286C25.4545 20.8738 25.6073 21.2468 25.9127 21.5474C26.2182 21.8481 26.5958 21.999 27.0454 22H33.4091C33.8598 22 34.2379 21.8491 34.5434 21.5474C34.8489 21.2457 35.0011 20.8728 35 20.4286V14.1429C35 13.6976 34.8473 13.3241 34.5418 13.0224C34.2364 12.7207 33.8588 12.5704 33.4091 12.5714H27.0454ZM4.77273 6.28572H17.5L13.3239 11.7857L10.3409 7.85715L8.15341 10.725L4.77273 6.28572ZM27.0454 5.72205e-06C26.5947 5.72205e-06 26.2171 0.150864 25.9127 0.452578C25.6083 0.754292 25.4556 1.12724 25.4545 1.57143V7.85715C25.4545 8.30238 25.6073 8.67534 25.9127 8.976C26.2182 9.27667 26.5958 9.42753 27.0454 9.42857H33.4091C33.8598 9.42857 34.2379 9.27772 34.5434 8.976C34.8489 8.67429 35.0011 8.30134 35 7.85715V1.57143C35 1.1262 34.8473 0.75272 34.5418 0.451006C34.2364 0.149292 33.8588 -0.00104141 33.4091 5.72205e-06H27.0454Z" fill="#22303E" fill-opacity="0.6"/>
</svg>
