<svg width="24" height="24" viewBox="0 0 24 24" fill="none" xmlns="http://www.w3.org/2000/svg">
<path d="M3.25 7.10714C3.25 6.87981 3.34031 6.6618 3.50105 6.50105C3.6618 6.34031 3.87981 6.25 4.10714 6.25H22.3929C22.6202 6.25 22.8382 6.34031 22.999 6.50105C23.1597 6.6618 23.25 6.87981 23.25 7.10714C23.25 7.33447 23.1597 7.55249 22.999 7.71323C22.8382 7.87398 22.6202 7.96429 22.3929 7.96429H4.10714C3.87981 7.96429 3.6618 7.87398 3.50105 7.71323C3.34031 7.55249 3.25 7.33447 3.25 7.10714ZM3.25 12.8214C3.25 12.5941 3.34031 12.3761 3.50105 12.2153C3.6618 12.0546 3.87981 11.9643 4.10714 11.9643H16.6786C16.9059 11.9643 17.1239 12.0546 17.2847 12.2153C17.4454 12.3761 17.5357 12.5941 17.5357 12.8214C17.5357 13.0488 17.4454 13.2668 17.2847 13.4275C17.1239 13.5883 16.9059 13.6786 16.6786 13.6786H4.10714C3.87981 13.6786 3.6618 13.5883 3.50105 13.4275C3.34031 13.2668 3.25 13.0488 3.25 12.8214ZM3.25 18.5357C3.25 18.3084 3.34031 18.0904 3.50105 17.9296C3.6618 17.7689 3.87981 17.6786 4.10714 17.6786H9.82143C10.0488 17.6786 10.2668 17.7689 10.4275 17.9296C10.5883 18.0904 10.6786 18.3084 10.6786 18.5357C10.6786 18.763 10.5883 18.9811 10.4275 19.1418C10.2668 19.3026 10.0488 19.3929 9.82143 19.3929H4.10714C3.87981 19.3929 3.6618 19.3026 3.50105 19.1418C3.34031 18.9811 3.25 18.763 3.25 18.5357Z" fill="#22303E"/>
<path d="M3.25 7.10714C3.25 6.87981 3.34031 6.6618 3.50105 6.50105C3.6618 6.34031 3.87981 6.25 4.10714 6.25H22.3929C22.6202 6.25 22.8382 6.34031 22.999 6.50105C23.1597 6.6618 23.25 6.87981 23.25 7.10714C23.25 7.33447 23.1597 7.55249 22.999 7.71323C22.8382 7.87398 22.6202 7.96429 22.3929 7.96429H4.10714C3.87981 7.96429 3.6618 7.87398 3.50105 7.71323C3.34031 7.55249 3.25 7.33447 3.25 7.10714ZM3.25 12.8214C3.25 12.5941 3.34031 12.3761 3.50105 12.2153C3.6618 12.0546 3.87981 11.9643 4.10714 11.9643H16.6786C16.9059 11.9643 17.1239 12.0546 17.2847 12.2153C17.4454 12.3761 17.5357 12.5941 17.5357 12.8214C17.5357 13.0488 17.4454 13.2668 17.2847 13.4275C17.1239 13.5883 16.9059 13.6786 16.6786 13.6786H4.10714C3.87981 13.6786 3.6618 13.5883 3.50105 13.4275C3.34031 13.2668 3.25 13.0488 3.25 12.8214ZM3.25 18.5357C3.25 18.3084 3.34031 18.0904 3.50105 17.9296C3.6618 17.7689 3.87981 17.6786 4.10714 17.6786H9.82143C10.0488 17.6786 10.2668 17.7689 10.4275 17.9296C10.5883 18.0904 10.6786 18.3084 10.6786 18.5357C10.6786 18.763 10.5883 18.9811 10.4275 19.1418C10.2668 19.3026 10.0488 19.3929 9.82143 19.3929H4.10714C3.87981 19.3929 3.6618 19.3026 3.50105 19.1418C3.34031 18.9811 3.25 18.763 3.25 18.5357Z" stroke="black"/>
</svg>
